<svg width="464" height="78" viewBox="0 0 464 78" fill="none" xmlns="http://www.w3.org/2000/svg">
<path d="M15.703 69.6429V8.80285L0 14.5971V5.57143L14.5893 0H25.1693V69.6429H37.3085V78H1.11369V69.6429H15.703Z" fill="#F97068"/>
<path d="M98.677 59.0571C98.677 65.1486 97.0065 69.8286 93.6654 73.0972C90.3244 76.3657 86.1295 78 81.0807 78H77.1828C72.1341 78 67.9392 76.3657 64.5982 73.0972C61.2571 69.8286 59.5866 65.1486 59.5866 59.0571V18.9429C59.5866 12.6286 61.2571 7.91143 64.5982 4.79143C68.0135 1.59714 72.9508 0 79.4102 0H93.3313V8.46857H78.2965C75.5494 8.46857 73.3221 9.28572 71.6144 10.92C69.9068 12.5543 69.0529 14.5229 69.0529 16.8257V28.9714H79.9671C86.3522 28.9714 91.0668 30.3829 94.1109 33.2057C97.155 36.0286 98.677 40.56 98.677 46.8V59.0571ZM69.0529 61.1743C69.0529 63.5514 69.8325 65.5572 71.3917 67.1914C72.9508 68.8257 75.0668 69.6429 77.7397 69.6429H80.5239C83.1968 69.6429 85.3128 68.8257 86.8719 67.1914C88.4311 65.5572 89.2107 63.5514 89.2107 61.1743V44.6829C89.2107 42.38 88.5053 40.5971 87.0947 39.3343C85.7582 37.9971 83.7536 37.3286 81.0807 37.3286H69.0529V61.1743Z" fill="#F97068"/>
<path d="M155.702 60.3943C155.702 66.56 154.217 71.0543 151.247 73.8771C148.278 76.6257 143.452 78 136.769 78H122.18V69.6429H137.772C140.593 69.6429 142.672 69.0114 144.008 67.7486C145.345 66.4114 146.013 64.3314 146.013 61.5086V47.3571C146.013 44.9057 145.271 42.9743 143.786 41.5629C142.301 40.0771 140.333 39.3343 137.883 39.3343H123.294V0H154.032V8.35715H132.76V30.9771H137.326C143.043 30.9771 147.535 32.3886 150.802 35.2114C154.069 38.0343 155.702 42.4171 155.702 48.36V60.3943Z" fill="#F97068"/>
<path d="M215.734 60.3943C215.734 66.56 214.249 71.0543 211.279 73.8771C208.31 76.6257 203.484 78 196.801 78H182.546V69.6429H197.804C200.625 69.6429 202.704 69.0114 204.04 67.7486C205.377 66.4114 206.045 64.3314 206.045 61.5086V50.0314C206.045 47.58 205.303 45.6486 203.818 44.2371C202.333 42.7514 200.365 42.0086 197.915 42.0086H185.999V33.6514H196.801C199.103 33.6514 201.034 32.9086 202.593 31.4229C204.152 29.9371 204.931 27.9686 204.931 25.5171V16.38C204.931 13.5571 204.263 11.5143 202.927 10.2514C201.665 8.98857 199.623 8.35715 196.801 8.35715H182.546V0H195.465C201.776 0 206.528 1.41143 209.72 4.23428C212.987 6.98286 214.62 11.3657 214.62 17.3829V24.4029C214.62 30.1229 212.579 34.4314 208.495 37.3286C213.321 40.0029 215.734 44.5714 215.734 51.0343V60.3943Z" fill="#F97068"/>
<path d="M267.748 8.35715H240.796V0H276.991V10.8086L257.39 78H247.479L267.748 8.35715Z" fill="#F97068"/>
<path d="M318.87 42.7886C321.246 39.3714 322.842 36.9571 323.659 35.5457C324.55 34.06 325.144 32.5743 325.441 31.0886C325.738 29.6029 325.886 27.4486 325.886 24.6257V16.8257C325.886 14.5229 325.033 12.5543 323.325 10.92C321.617 9.28572 319.39 8.46857 316.643 8.46857H303.279V0H315.529C321.989 0 326.926 1.59714 330.341 4.79143C333.831 7.91143 335.576 12.6286 335.576 18.9429V23.6229C335.576 27.3371 335.316 30.3457 334.796 32.6486C334.276 34.9514 333.534 36.9943 332.569 38.7771C331.603 40.56 330.007 43.0486 327.78 46.2429L311.297 69.5314H337.803V78H301.051V68.1943L318.87 42.7886Z" fill="#F97068"/>
<path d="M400.062 60.3943C400.062 66.56 398.577 71.0543 395.608 73.8771C392.638 76.6257 387.812 78 381.13 78H378.011C371.329 78 366.503 76.6257 363.533 73.8771C360.564 71.0543 359.079 66.56 359.079 60.3943V51.0343C359.079 44.5714 361.492 40.0029 366.318 37.3286C362.383 34.58 360.415 30.2714 360.415 24.4029V17.3829C360.415 11.44 361.974 7.05714 365.093 4.23428C368.211 1.41143 372.666 0 378.457 0H380.684C386.475 0 390.93 1.41143 394.048 4.23428C397.167 7.05714 398.726 11.44 398.726 17.3829V24.4029C398.726 30.2714 396.758 34.58 392.823 37.3286C397.649 40.0029 400.062 44.5714 400.062 51.0343V60.3943ZM377.12 8.35715C374.596 8.43143 372.777 9.13715 371.663 10.4743C370.624 11.7371 370.104 13.7057 370.104 16.38V25.5171C370.104 27.8943 370.772 29.8257 372.109 31.3114C373.52 32.7229 375.264 33.5029 377.343 33.6514H381.13C383.431 33.6514 385.325 32.9086 386.81 31.4229C388.294 29.9371 389.037 27.9686 389.037 25.5171V16.38C389.037 13.5571 388.406 11.5143 387.144 10.2514C385.956 8.98857 383.951 8.35715 381.13 8.35715H377.12ZM390.373 50.0314C390.373 47.58 389.631 45.6486 388.146 44.2371C386.661 42.7514 384.693 42.0086 382.243 42.0086H376.898C374.448 42.0086 372.48 42.7514 370.995 44.2371C369.51 45.6486 368.768 47.58 368.768 50.0314V61.5086C368.768 64.2571 369.362 66.3 370.55 67.6371C371.738 68.9743 373.594 69.6429 376.118 69.6429H382.132C384.953 69.6429 387.032 69.0114 388.369 67.7486C389.705 66.4114 390.373 64.3314 390.373 61.5086V50.0314Z" fill="#F97068"/>
<path d="M420.336 18.9429C420.336 12.8514 422.006 8.17143 425.347 4.90286C428.689 1.63429 432.883 0 437.932 0H441.83C446.879 0 451.074 1.63429 454.415 4.90286C457.756 8.17143 459.426 12.8514 459.426 18.9429V59.0571C459.426 65.3714 457.719 70.1257 454.303 73.32C450.962 76.44 446.062 78 439.603 78H426.795V69.5314H440.716C443.463 69.5314 445.691 68.7143 447.398 67.08C449.106 65.4457 449.96 63.4771 449.96 61.1743V49.0286H439.046C432.661 49.0286 427.946 47.6171 424.902 44.7943C421.858 41.9714 420.336 37.44 420.336 31.2V18.9429ZM449.96 16.8257C449.96 14.4486 449.18 12.4429 447.621 10.8086C446.062 9.17429 443.946 8.35715 441.273 8.35715H438.489C435.816 8.35715 433.7 9.17429 432.141 10.8086C430.582 12.4429 429.802 14.4486 429.802 16.8257V33.3171C429.802 35.62 430.47 37.44 431.807 38.7771C433.217 40.04 435.259 40.6714 437.932 40.6714H449.96V16.8257Z" fill="#F97068"/>
<path d="M519.681 59.0571C519.681 65.2229 517.973 69.94 514.558 73.2086C511.217 76.4028 506.688 78 500.971 78H498.744C493.027 78 488.461 76.4028 485.045 73.2086C481.704 69.94 480.034 65.2229 480.034 59.0571V18.9429C480.034 12.7029 481.704 7.98572 485.045 4.79143C488.386 1.59714 492.953 0 498.744 0H500.971C506.762 0 511.328 1.59714 514.669 4.79143C518.01 7.98572 519.681 12.7029 519.681 18.9429V59.0571ZM510.215 16.8257C510.215 14.5229 509.324 12.5543 507.542 10.92C505.834 9.21143 503.644 8.35715 500.971 8.35715H498.744C496.071 8.35715 493.844 9.21143 492.062 10.92C490.354 12.5543 489.5 14.5229 489.5 16.8257V47.0229L510.215 16.8257ZM489.5 61.1743C489.5 63.4771 490.354 65.4829 492.062 67.1914C493.844 68.8257 496.071 69.6429 498.744 69.6429H500.971C503.644 69.6429 505.834 68.8257 507.542 67.1914C509.324 65.4829 510.215 63.4771 510.215 61.1743V31.0886L489.5 61.1743Z" fill="#F97068"/>
<path d="M576.595 60.3943C576.595 66.56 575.11 71.0543 572.14 73.8771C569.17 76.6257 564.344 78 557.662 78H543.407V69.6429H558.664C561.486 69.6429 563.565 69.0114 564.901 67.7486C566.238 66.4114 566.906 64.3314 566.906 61.5086V50.0314C566.906 47.58 566.163 45.6486 564.678 44.2371C563.193 42.7514 561.226 42.0086 558.776 42.0086H546.859V33.6514H557.662C559.964 33.6514 561.894 32.9086 563.453 31.4229C565.012 29.9371 565.792 27.9686 565.792 25.5171V16.38C565.792 13.5571 565.124 11.5143 563.787 10.2514C562.525 8.98857 560.483 8.35715 557.662 8.35715H543.407V0H556.326C562.637 0 567.388 1.41143 570.581 4.23428C573.848 6.98286 575.481 11.3657 575.481 17.3829V24.4029C575.481 30.1229 573.439 34.4314 569.356 37.3286C574.182 40.0029 576.595 44.5714 576.595 51.0343V60.3943Z" fill="#F97068"/>
<path d="M619.587 42.7886C621.963 39.3714 623.56 36.9571 624.376 35.5457C625.267 34.06 625.861 32.5743 626.158 31.0886C626.455 29.6029 626.604 27.4486 626.604 24.6257V16.8257C626.604 14.5229 625.75 12.5543 624.042 10.92C622.335 9.28572 620.107 8.46857 617.36 8.46857H603.996V0H616.246C622.706 0 627.643 1.59714 631.058 4.79143C634.548 7.91143 636.293 12.6286 636.293 18.9429V23.6229C636.293 27.3371 636.033 30.3457 635.513 32.6486C634.993 34.9514 634.251 36.9943 633.286 38.7771C632.321 40.56 630.724 43.0486 628.497 46.2429L612.014 69.5314H638.52V78H601.768V68.1943L619.587 42.7886Z" fill="#F97068"/>
<path d="M660.91 18.9429C660.91 12.8514 662.58 8.17143 665.921 4.90286C669.262 1.63429 673.457 0 678.506 0H682.404C687.452 0 691.647 1.63429 694.988 4.90286C698.329 8.17143 700 12.8514 700 18.9429V59.0571C700 65.3714 698.292 70.1257 694.877 73.32C691.536 76.44 686.636 78 680.176 78H667.369V69.5314H681.29C684.037 69.5314 686.265 68.7143 687.972 67.08C689.68 65.4457 690.534 63.4771 690.534 61.1743V49.0286H679.62C673.234 49.0286 668.52 47.6171 665.476 44.7943C662.432 41.9714 660.91 37.44 660.91 31.2V18.9429ZM690.534 16.8257C690.534 14.4486 689.754 12.4429 688.195 10.8086C686.636 9.17429 684.52 8.35715 681.847 8.35715H679.063C676.39 8.35715 674.274 9.17429 672.715 10.8086C671.156 12.4429 670.376 14.4486 670.376 16.8257V33.3171C670.376 35.62 671.044 37.44 672.381 38.7771C673.791 40.04 675.833 40.6714 678.506 40.6714H690.534V16.8257Z" fill="#F97068"/>
</svg>
