<svg width="934" height="226" viewBox="0 0 934 226" fill="none" xmlns="http://www.w3.org/2000/svg">
<path d="M93.9936 308.929V39.0486L0 64.7514V24.7143L87.3274 0H150.656V308.929H223.318V346H6.66621V308.929H93.9936Z" fill="#D1D646"/>
<path d="M590.652 261.971C590.652 288.992 580.653 309.752 560.654 324.251C540.656 338.751 515.546 346 485.326 346H461.994C431.774 346 406.665 338.751 386.666 324.251C366.668 309.752 356.668 288.992 356.668 261.971V84.0286C356.668 56.0191 366.668 35.0943 386.666 21.2543C407.109 7.08476 436.663 0 475.327 0H558.655V37.5657H468.661C452.217 37.5657 438.885 41.1905 428.663 48.44C418.442 55.6895 413.331 64.4219 413.331 74.6372V128.514H478.66C516.88 128.514 545.1 134.775 563.321 147.297C581.542 159.819 590.652 179.92 590.652 207.6V261.971ZM413.331 271.363C413.331 281.908 417.998 290.805 427.33 298.054C436.663 305.304 449.329 308.929 465.328 308.929H481.993C497.992 308.929 510.658 305.304 519.99 298.054C529.323 290.805 533.99 281.908 533.99 271.363V198.209C533.99 187.993 529.768 180.085 521.324 174.483C513.324 168.551 501.325 165.586 485.326 165.586H413.331V271.363Z" fill="#D1D646"/>
<path d="M931.988 267.903C931.988 295.253 923.1 315.19 905.324 327.711C887.547 339.904 858.66 346 818.663 346H731.335V308.929H824.662C841.55 308.929 853.994 306.128 861.993 300.526C869.993 294.594 873.992 285.368 873.992 272.846V210.071C873.992 199.197 869.548 190.63 860.66 184.369C851.772 177.778 839.995 174.483 825.329 174.483H738.002V0H921.989V37.0714H794.665V137.411H821.996C856.216 137.411 883.103 143.672 902.657 156.194C922.211 168.716 931.988 188.158 931.988 214.52V267.903Z" fill="#D1D646"/>
<path d="M1291.32 267.903C1291.32 295.253 1282.43 315.19 1264.66 327.711C1246.88 339.904 1217.99 346 1178 346H1092.67V308.929H1184C1200.89 308.929 1213.33 306.128 1221.33 300.526C1229.33 294.594 1233.33 285.368 1233.33 272.846V221.934C1233.33 211.06 1228.88 202.492 1219.99 196.231C1211.11 189.641 1199.33 186.346 1184.66 186.346H1113.34V149.274H1178C1191.77 149.274 1203.33 145.979 1212.66 139.389C1221.99 132.798 1226.66 124.066 1226.66 113.191V72.66C1226.66 60.1381 1222.66 51.0762 1214.66 45.4743C1207.11 39.8724 1194.89 37.0714 1178 37.0714H1092.67V0H1170C1207.77 0 1236.22 6.26094 1255.33 18.7828C1274.88 30.9752 1284.66 50.4172 1284.66 77.1086V108.249C1284.66 133.622 1272.44 152.734 1247.99 165.586C1276.88 177.449 1291.32 197.714 1291.32 226.383V267.903Z" fill="#D1D646"/>
<path d="M1602.66 37.0714H1441.34V0H1657.99V47.9457L1540.67 346H1481.34L1602.66 37.0714Z" fill="#D1D646"/>
<path d="M1908.67 189.806C1922.89 174.648 1932.44 163.938 1937.33 157.677C1942.66 151.087 1946.22 144.496 1948 137.906C1949.77 131.315 1950.66 121.759 1950.66 109.237V74.6372C1950.66 64.4219 1945.55 55.6895 1935.33 48.44C1925.11 41.1905 1911.78 37.5657 1895.33 37.5657H1815.34V0H1888.67C1927.33 0 1956.89 7.08476 1977.33 21.2543C1998.22 35.0943 2008.66 56.0191 2008.66 84.0286V104.789C2008.66 121.265 2007.1 134.61 2003.99 144.826C2000.88 155.041 1996.44 164.103 1990.66 172.011C1984.88 179.92 1975.33 190.959 1962 205.129L1863.34 308.434H2021.99V346H1802.01V302.503L1908.67 189.806Z" fill="#D1D646"/>
<path d="M2394.66 267.903C2394.66 295.253 2385.77 315.19 2367.99 327.711C2350.22 339.904 2321.33 346 2281.33 346H2262.67C2222.67 346 2193.78 339.904 2176.01 327.711C2158.23 315.19 2149.34 295.253 2149.34 267.903V226.383C2149.34 197.714 2163.79 177.449 2192.67 165.586C2169.12 153.393 2157.34 134.281 2157.34 108.249V77.1086C2157.34 50.7467 2166.67 31.3048 2185.34 18.7828C2204.01 6.26094 2230.67 0 2265.33 0H2278.67C2313.33 0 2340 6.26094 2358.66 18.7828C2377.33 31.3048 2386.66 50.7467 2386.66 77.1086V108.249C2386.66 134.281 2374.88 153.393 2351.33 165.586C2380.22 177.449 2394.66 197.714 2394.66 226.383V267.903ZM2257.34 37.0714C2242.23 37.401 2231.34 40.5314 2224.67 46.4629C2218.45 52.0648 2215.34 60.7971 2215.34 72.66V113.191C2215.34 123.736 2219.34 132.304 2227.34 138.894C2235.78 145.155 2246.22 148.615 2258.67 149.274H2281.33C2295.11 149.274 2306.44 145.979 2315.33 139.389C2324.22 132.798 2328.66 124.066 2328.66 113.191V72.66C2328.66 60.1381 2324.89 51.0762 2317.33 45.4743C2310.22 39.8724 2298.22 37.0714 2281.33 37.0714H2257.34ZM2336.66 221.934C2336.66 211.06 2332.22 202.492 2323.33 196.231C2314.44 189.641 2302.67 186.346 2288 186.346H2256C2241.34 186.346 2229.56 189.641 2220.67 196.231C2211.78 202.492 2207.34 211.06 2207.34 221.934V272.846C2207.34 285.038 2210.89 294.1 2218 300.031C2225.12 305.963 2236.23 308.929 2251.34 308.929H2287.33C2304.22 308.929 2316.66 306.128 2324.66 300.526C2332.66 294.594 2336.66 285.368 2336.66 272.846V221.934Z" fill="#D1D646"/>
<path d="M2516.01 84.0286C2516.01 57.0076 2526.01 36.2476 2546.01 21.7486C2566.01 7.24952 2591.12 0 2621.34 0H2644.67C2674.89 0 2700 7.24952 2720 21.7486C2740 36.2476 2749.99 57.0076 2749.99 84.0286V261.971C2749.99 289.981 2739.77 311.07 2719.33 325.24C2699.33 339.08 2670 346 2631.34 346H2554.67V308.434H2638C2654.45 308.434 2667.78 304.81 2678 297.56C2688.22 290.31 2693.33 281.578 2693.33 271.363V217.486H2628C2589.78 217.486 2561.56 211.225 2543.34 198.703C2525.12 186.181 2516.01 166.08 2516.01 138.4V84.0286ZM2693.33 74.6372C2693.33 64.0924 2688.67 55.1952 2679.33 47.9457C2670 40.6962 2657.33 37.0714 2641.33 37.0714H2624.67C2608.67 37.0714 2596 40.6962 2586.67 47.9457C2577.34 55.1952 2572.67 64.0924 2572.67 74.6372V147.791C2572.67 158.007 2576.67 166.08 2584.67 172.011C2593.12 177.613 2605.34 180.414 2621.34 180.414H2693.33V74.6372Z" fill="#D1D646"/>
<path d="M3110.66 261.971C3110.66 289.322 3100.44 310.247 3080 324.746C3060 338.915 3032.89 346 2998.67 346H2985.34C2951.12 346 2923.79 338.915 2903.34 324.746C2883.34 310.247 2873.35 289.322 2873.35 261.971V84.0286C2873.35 56.3486 2883.34 35.4238 2903.34 21.2543C2923.34 7.08476 2950.67 0 2985.34 0H2998.67C3033.33 0 3060.67 7.08476 3080.66 21.2543C3100.66 35.4238 3110.66 56.3486 3110.66 84.0286V261.971ZM3054 74.6372C3054 64.4219 3048.67 55.6895 3038 48.44C3027.78 40.861 3014.67 37.0714 2998.67 37.0714H2985.34C2969.34 37.0714 2956.01 40.861 2945.34 48.44C2935.12 55.6895 2930.01 64.4219 2930.01 74.6372V208.589L3054 74.6372ZM2930.01 271.363C2930.01 281.578 2935.12 290.475 2945.34 298.054C2956.01 305.304 2969.34 308.929 2985.34 308.929H2998.67C3014.67 308.929 3027.78 305.304 3038 298.054C3048.67 290.475 3054 281.578 3054 271.363V137.906L2930.01 271.363Z" fill="#D1D646"/>
<path d="M3451.33 267.903C3451.33 295.253 3442.44 315.19 3424.67 327.711C3406.89 339.904 3378 346 3338.01 346H3252.68V308.929H3344.01C3360.89 308.929 3373.34 306.128 3381.34 300.526C3389.34 294.594 3393.34 285.368 3393.34 272.846V221.934C3393.34 211.06 3388.89 202.492 3380 196.231C3371.12 189.641 3359.34 186.346 3344.67 186.346H3273.34V149.274H3338.01C3351.78 149.274 3363.34 145.979 3372.67 139.389C3382 132.798 3386.67 124.066 3386.67 113.191V72.66C3386.67 60.1381 3382.67 51.0762 3374.67 45.4743C3367.12 39.8724 3354.89 37.0714 3338.01 37.0714H3252.68V0H3330.01C3367.78 0 3396.22 6.26094 3415.33 18.7828C3434.89 30.9752 3444.67 50.4172 3444.67 77.1086V108.249C3444.67 133.622 3432.44 152.734 3408 165.586C3436.89 177.449 3451.33 197.714 3451.33 226.383V267.903Z" fill="#D1D646"/>
<path d="M3708.67 189.806C3722.89 174.648 3732.45 163.938 3737.34 157.677C3742.67 151.087 3746.23 144.496 3748 137.906C3749.78 131.315 3750.67 121.759 3750.67 109.237V74.6372C3750.67 64.4219 3745.56 55.6895 3735.34 48.44C3725.12 41.1905 3711.78 37.5657 3695.34 37.5657H3615.35V0H3688.68C3727.34 0 3756.89 7.08476 3777.34 21.2543C3798.22 35.0943 3808.67 56.0191 3808.67 84.0286V104.789C3808.67 121.265 3807.11 134.61 3804 144.826C3800.89 155.041 3796.45 164.103 3790.67 172.011C3784.89 179.92 3775.34 190.959 3762 205.129L3663.34 308.434H3822V346H3602.01V302.503L3708.67 189.806Z" fill="#D1D646"/>
<path d="M3956.02 84.0286C3956.02 57.0076 3966.02 36.2476 3986.01 21.7486C4006.01 7.24952 4031.12 0 4061.34 0H4084.67C4114.89 0 4140 7.24952 4160 21.7486C4180 36.2476 4190 57.0076 4190 84.0286V261.971C4190 289.981 4179.78 311.07 4159.34 325.24C4139.34 339.08 4110.01 346 4071.34 346H3994.68V308.434H4078.01C4094.45 308.434 4107.78 304.81 4118.01 297.56C4128.23 290.31 4133.34 281.578 4133.34 271.363V217.486H4068.01C4029.79 217.486 4001.57 211.225 3983.35 198.703C3965.13 186.181 3956.02 166.08 3956.02 138.4V84.0286ZM4133.34 74.6372C4133.34 64.0924 4128.67 55.1952 4119.34 47.9457C4110.01 40.6962 4097.34 37.0714 4081.34 37.0714H4064.68C4048.68 37.0714 4036.01 40.6962 4026.68 47.9457C4017.35 55.1952 4012.68 64.0924 4012.68 74.6372V147.791C4012.68 158.007 4016.68 166.08 4024.68 172.011C4033.12 177.613 4045.34 180.414 4061.34 180.414H4133.34V74.6372Z" fill="#D1D646"/>
</svg>
