<svg width="351" height="67" viewBox="0 0 351 67" fill="none" xmlns="http://www.w3.org/2000/svg">
<path d="M18.2155 59.8214V7.56143L0 12.5386V4.78571L16.9236 0H29.1964V59.8214H43.2779V67H1.29188V59.8214H18.2155Z" fill="#D1D646"/>
<path d="M114.465 50.7286C114.465 55.961 112.528 59.981 108.652 62.7886C104.776 65.5962 99.9102 67 94.0537 67H89.5321C83.6756 67 78.8095 65.5962 74.9339 62.7886C71.0583 59.981 69.1204 55.961 69.1204 50.7286V16.2714C69.1204 10.8476 71.0583 6.79572 74.9339 4.11572C78.8956 1.3719 84.623 0 92.1159 0H108.264V7.27429H90.824C87.6374 7.27429 85.0536 7.97619 83.0727 9.38C81.0918 10.7838 80.1014 12.4748 80.1014 14.4529V24.8857H92.7618C100.169 24.8857 105.637 26.0981 109.169 28.5229C112.7 30.9476 114.465 34.84 114.465 40.2V50.7286ZM80.1014 52.5471C80.1014 54.5891 81.0057 56.3119 82.8143 57.7157C84.623 59.1195 87.0775 59.8214 90.178 59.8214H93.4077C96.5082 59.8214 98.9628 59.1195 100.771 57.7157C102.58 56.3119 103.484 54.5891 103.484 52.5471V38.3814C103.484 36.4033 102.666 34.8719 101.03 33.7871C99.4795 32.6386 97.1542 32.0643 94.0537 32.0643H80.1014V52.5471Z" fill="#D1D646"/>
<path d="M180.614 51.8771C180.614 57.1733 178.892 61.0338 175.447 63.4586C172.002 65.8195 166.404 67 158.653 67H141.729V59.8214H159.815C163.088 59.8214 165.499 59.2791 167.05 58.1943C168.6 57.0457 169.375 55.259 169.375 52.8343V40.6786C169.375 38.5729 168.514 36.9138 166.791 35.7014C165.069 34.4252 162.787 33.7871 159.944 33.7871H143.021V0H178.677V7.17858H154.002V26.6086H159.298C165.93 26.6086 171.141 27.821 174.93 30.2457C178.72 32.6705 180.614 36.4352 180.614 41.54V51.8771Z" fill="#D1D646"/>
<path d="M250.252 51.8771C250.252 57.1733 248.529 61.0338 245.084 63.4586C241.639 65.8195 236.041 67 228.29 67H211.754V59.8214H229.452C232.725 59.8214 235.137 59.2791 236.687 58.1943C238.237 57.0457 239.012 55.259 239.012 52.8343V42.9757C239.012 40.87 238.151 39.211 236.429 37.9986C234.706 36.7224 232.424 36.0843 229.582 36.0843H215.759V28.9057H228.29C230.96 28.9057 233.199 28.2676 235.008 26.9914C236.816 25.7152 237.72 24.0243 237.72 21.9186V14.07C237.72 11.6452 236.945 9.89048 235.395 8.80571C233.931 7.72096 231.562 7.17858 228.29 7.17858H211.754V0H226.74C234.06 0 239.572 1.21238 243.276 3.63714C247.065 5.9981 248.96 9.76286 248.96 14.9314V20.9614C248.96 25.8748 246.591 29.5757 241.854 32.0643C247.453 34.3614 250.252 38.2857 250.252 43.8371V51.8771Z" fill="#D1D646"/>
<path d="M310.587 7.17858H279.324V0H321.31V9.28428L298.573 67H287.075L310.587 7.17858Z" fill="#D1D646"/>
<path d="M369.889 36.7543C372.646 33.819 374.497 31.7452 375.445 30.5329C376.478 29.2567 377.167 27.9805 377.512 26.7043C377.856 25.4281 378.028 23.5776 378.028 21.1529V14.4529C378.028 12.4748 377.038 10.7838 375.057 9.38C373.076 7.97619 370.492 7.27429 367.306 7.27429H351.803V0H366.014C373.507 0 379.234 1.3719 383.196 4.11572C387.244 6.79572 389.268 10.8476 389.268 16.2714V20.2914C389.268 23.4819 388.966 26.0662 388.363 28.0443C387.76 30.0224 386.899 31.7771 385.78 33.3086C384.66 34.84 382.808 36.9776 380.225 39.7214L361.105 59.7257H391.851V67H349.219V58.5771L369.889 36.7543Z" fill="#D1D646"/>
<path d="M464.072 51.8771C464.072 57.1733 462.35 61.0338 458.905 63.4586C455.46 65.8195 449.862 67 442.11 67H438.493C430.742 67 425.144 65.8195 421.699 63.4586C418.254 61.0338 416.531 57.1733 416.531 51.8771V43.8371C416.531 38.2857 419.33 34.3614 424.928 32.0643C420.364 29.7033 418.082 26.0024 418.082 20.9614V14.9314C418.082 9.82667 419.89 6.0619 423.507 3.63714C427.125 1.21238 432.292 0 439.01 0H441.594C448.311 0 453.479 1.21238 457.096 3.63714C460.714 6.0619 462.522 9.82667 462.522 14.9314V20.9614C462.522 26.0024 460.24 29.7033 455.675 32.0643C461.273 34.3614 464.072 38.2857 464.072 43.8371V51.8771ZM437.46 7.17858C434.531 7.24238 432.421 7.84857 431.129 8.99715C429.924 10.0819 429.321 11.7729 429.321 14.07V21.9186C429.321 23.9605 430.096 25.6195 431.646 26.8957C433.283 28.1081 435.307 28.7781 437.718 28.9057H442.11C444.78 28.9057 446.977 28.2676 448.699 26.9914C450.422 25.7152 451.283 24.0243 451.283 21.9186V14.07C451.283 11.6452 450.551 9.89048 449.087 8.80571C447.709 7.72096 445.383 7.17858 442.11 7.17858H437.46ZM452.833 42.9757C452.833 40.87 451.972 39.211 450.249 37.9986C448.527 36.7224 446.244 36.0843 443.402 36.0843H437.201C434.359 36.0843 432.077 36.7224 430.354 37.9986C428.632 39.211 427.771 40.87 427.771 42.9757V52.8343C427.771 55.1952 428.46 56.95 429.838 58.0986C431.216 59.2471 433.369 59.8214 436.297 59.8214H443.273C446.546 59.8214 448.957 59.2791 450.508 58.1943C452.058 57.0457 452.833 55.259 452.833 52.8343V42.9757Z" fill="#D1D646"/>
<path d="M487.59 16.2714C487.59 11.039 489.527 7.01905 493.403 4.21143C497.279 1.40381 502.145 0 508.001 0H512.523C518.379 0 523.245 1.40381 527.121 4.21143C530.997 7.01905 532.934 11.039 532.934 16.2714V50.7286C532.934 56.1524 530.954 60.2362 526.992 62.98C523.116 65.66 517.432 67 509.939 67H495.082V59.7257H511.231C514.418 59.7257 517.001 59.0238 518.982 57.62C520.963 56.2162 521.953 54.5252 521.953 52.5471V42.1143H509.293C501.886 42.1143 496.417 40.9019 492.886 38.4771C489.355 36.0524 487.59 32.16 487.59 26.8V16.2714ZM521.953 14.4529C521.953 12.411 521.049 10.6881 519.241 9.28428C517.432 7.88048 514.977 7.17858 511.877 7.17858H508.647C505.547 7.17858 503.092 7.88048 501.283 9.28428C499.475 10.6881 498.571 12.411 498.571 14.4529V28.6186C498.571 30.5967 499.346 32.16 500.896 33.3086C502.532 34.3933 504.901 34.9357 508.001 34.9357H521.953V14.4529Z" fill="#D1D646"/>
<path d="M602.83 50.7286C602.83 56.0248 600.849 60.0767 596.887 62.8843C593.012 65.6281 587.758 67 581.126 67H578.543C571.911 67 566.614 65.6281 562.653 62.8843C558.777 60.0767 556.839 56.0248 556.839 50.7286V16.2714C556.839 10.9114 558.777 6.85953 562.653 4.11572C566.528 1.3719 571.825 0 578.543 0H581.126C587.844 0 593.141 1.3719 597.017 4.11572C600.892 6.85953 602.83 10.9114 602.83 16.2714V50.7286ZM591.849 14.4529C591.849 12.4748 590.816 10.7838 588.749 9.38C586.768 7.91238 584.227 7.17858 581.126 7.17858H578.543C575.442 7.17858 572.858 7.91238 570.791 9.38C568.811 10.7838 567.82 12.4748 567.82 14.4529V40.3914L591.849 14.4529ZM567.82 52.5471C567.82 54.5252 568.811 56.2481 570.791 57.7157C572.858 59.1195 575.442 59.8214 578.543 59.8214H581.126C584.227 59.8214 586.768 59.1195 588.749 57.7157C590.816 56.2481 591.849 54.5252 591.849 52.5471V26.7043L567.82 52.5471Z" fill="#D1D646"/>
<path d="M668.85 51.8771C668.85 57.1733 667.128 61.0338 663.682 63.4586C660.237 65.8195 654.639 67 646.888 67H630.352V59.8214H648.051C651.323 59.8214 653.735 59.2791 655.285 58.1943C656.836 57.0457 657.611 55.259 657.611 52.8343V42.9757C657.611 40.87 656.749 39.211 655.027 37.9986C653.304 36.7224 651.022 36.0843 648.18 36.0843H634.357V28.9057H646.888C649.558 28.9057 651.797 28.2676 653.606 26.9914C655.414 25.7152 656.319 24.0243 656.319 21.9186V14.07C656.319 11.6452 655.544 9.89048 653.993 8.80571C652.529 7.72096 650.161 7.17858 646.888 7.17858H630.352V0H645.338C652.658 0 658.17 1.21238 661.874 3.63714C665.663 5.9981 667.558 9.76286 667.558 14.9314V20.9614C667.558 25.8748 665.19 29.5757 660.453 32.0643C666.051 34.3614 668.85 38.2857 668.85 43.8371V51.8771Z" fill="#D1D646"/>
<path d="M718.721 36.7543C721.477 33.819 723.329 31.7452 724.276 30.5329C725.31 29.2567 725.999 27.9805 726.344 26.7043C726.688 25.4281 726.86 23.5776 726.86 21.1529V14.4529C726.86 12.4748 725.87 10.7838 723.889 9.38C721.908 7.97619 719.324 7.27429 716.138 7.27429H700.635V0H714.846C722.339 0 728.066 1.3719 732.028 4.11572C736.076 6.79572 738.1 10.8476 738.1 16.2714V20.2914C738.1 23.4819 737.798 26.0662 737.195 28.0443C736.592 30.0224 735.731 31.7771 734.612 33.3086C733.492 34.84 731.64 36.9776 729.056 39.7214L709.937 59.7257H740.683V67H698.051V58.5771L718.721 36.7543Z" fill="#D1D646"/>
<path d="M766.655 16.2714C766.655 11.039 768.593 7.01905 772.469 4.21143C776.344 1.40381 781.21 0 787.067 0H791.588C797.445 0 802.311 1.40381 806.187 4.21143C810.062 7.01905 812 11.039 812 16.2714V50.7286C812 56.1524 810.019 60.2362 806.057 62.98C802.182 65.66 796.497 67 789.005 67H774.148V59.7257H790.297C793.483 59.7257 796.067 59.0238 798.048 57.62C800.029 56.2162 801.019 54.5252 801.019 52.5471V42.1143H788.359C780.952 42.1143 775.483 40.9019 771.952 38.4771C768.421 36.0524 766.655 32.16 766.655 26.8V16.2714ZM801.019 14.4529C801.019 12.411 800.115 10.6881 798.306 9.28428C796.497 7.88048 794.043 7.17858 790.942 7.17858H787.713C784.612 7.17858 782.158 7.88048 780.349 9.28428C778.54 10.6881 777.636 12.411 777.636 14.4529V28.6186C777.636 30.5967 778.411 32.16 779.961 33.3086C781.598 34.3933 783.966 34.9357 787.067 34.9357H801.019V14.4529Z" fill="#D1D646"/>
</svg>
